<svg xmlns:xlink="http://www.w3.org/1999/xlink" width="292.895" xmlns="http://www.w3.org/2000/svg" height="187.204" id="screenshot-8214213c-ab63-8062-8002-0d3d5ae9182a" viewBox="0 0 292.895 187.204" style="-webkit-print-color-adjust: exact;" fill="none" version="1.1"><g id="shape-8214213c-ab63-8062-8002-0d3d5ae9182a" xml:space="preserve" width="675.78668" version="1.1" height="782.50665" rx="0" ry="0" style="fill: rgb(0, 0, 0);"><g id="shape-8214213c-ab63-8062-8002-0d3d5b000a87"><g class="fills" id="fills-8214213c-ab63-8062-8002-0d3d5b000a87"><path rx="0" ry="0" d="M85.522,157.380L56.342,173.093L5.577,173.093C3.526,173.093,1.643,171.969,0.670,170.165C-0.305,168.364,-0.210,166.172,0.914,164.459C14.535,143.688,39.054,132.813,63.594,136.660L85.522,157.380Z" style="fill-rule: evenodd; stroke: none; fill: rgb(183, 3, 68); fill-opacity: 1;"/></g></g><g id="shape-8214213c-ab63-8062-8002-0d3d5b000a88"><g class="fills" id="fills-8214213c-ab63-8062-8002-0d3d5b000a88"><path rx="0" ry="0" d="M85.522,89.069L56.342,73.355L5.577,73.355C3.526,73.355,1.643,74.479,0.670,76.281C-0.305,78.084,-0.210,80.276,0.914,81.989C14.535,102.760,39.054,113.635,63.594,109.788L85.522,89.069Z" style="fill-rule: evenodd; stroke: none; fill: rgb(224, 224, 208); fill-opacity: 1;"/></g></g><g id="shape-8214213c-ab63-8062-8002-0d3d5b000a89"><g class="fills" id="fills-8214213c-ab63-8062-8002-0d3d5b000a89"><path rx="0" ry="0" d="M168.513,187.204C237.021,187.204,292.895,158.464,292.895,123.225C292.895,87.987,237.021,59.245,168.513,59.245C100.005,59.245,44.130,87.987,44.130,123.225C44.130,158.464,100.005,187.204,168.513,187.204Z" style="fill-rule: evenodd; stroke: none; fill: rgb(224, 224, 208); fill-opacity: 1;"/></g></g><g id="shape-8214213c-ab63-8062-8002-0d3d5b004151"><g class="fills" id="fills-8214213c-ab63-8062-8002-0d3d5b004151"><path rx="0" ry="0" d="M291.517,132.769C282.558,163.576,230.902,187.204,168.513,187.204C106.125,187.204,54.469,163.576,45.509,132.769C61.117,146.811,110.275,157.067,168.513,157.067C226.750,157.067,275.909,146.811,291.517,132.769Z" style="fill-rule: evenodd; stroke: none; fill: rgb(183, 3, 68); fill-opacity: 1;"/></g></g><g id="shape-8214213c-ab63-8062-8002-0d3d5b004152"><g class="fills" id="fills-8214213c-ab63-8062-8002-0d3d5b004152"><path rx="0" ry="0" d="M228.182,145.569C238.786,145.569,247.435,136.920,247.435,126.316C247.435,115.712,238.786,107.063,228.182,107.063C217.579,107.063,208.929,115.712,208.929,126.316C208.929,136.920,217.579,145.569,228.182,145.569Z" style="fill-rule: evenodd; stroke: none; fill: rgb(160, 101, 121); fill-opacity: 1;"/></g></g><g id="shape-8214213c-ab63-8062-8002-0d3d5b00bfd6"><g class="fills" id="fills-8214213c-ab63-8062-8002-0d3d5b00bfd6"><path rx="0" ry="0" d="M225.995,142.479C236.599,142.479,245.247,133.828,245.247,123.224C245.247,112.620,236.599,103.972,225.995,103.972C215.390,103.972,206.742,112.620,206.742,123.224C206.742,133.828,215.390,142.479,225.995,142.479Z" style="fill-rule: evenodd; stroke: none; fill: rgb(183, 3, 68); fill-opacity: 1;"/></g></g><g id="shape-8214213c-ab63-8062-8002-0d3d5b00bfd7"><g class="fills" id="fills-8214213c-ab63-8062-8002-0d3d5b00bfd7"><path rx="0" ry="0" d="M225.995,135.327C232.659,135.327,238.097,129.889,238.097,123.224C238.097,116.559,232.659,111.123,225.995,111.123C219.330,111.123,213.894,116.559,213.894,123.224C213.894,129.889,219.330,135.327,225.995,135.327Z" style="fill-rule: evenodd; stroke: none; fill: rgb(175, 175, 162); fill-opacity: 1;"/></g></g><g id="shape-8214213c-ab63-8062-8002-0d3d5b00bfd8"><g class="fills" id="fills-8214213c-ab63-8062-8002-0d3d5b00bfd8"><path rx="0" ry="0" d="M225.995,122.357C229.205,122.357,231.823,120.497,231.823,118.216C231.823,115.937,229.205,114.077,225.995,114.077C222.785,114.077,220.166,115.937,220.166,118.216C220.166,120.497,222.785,122.357,225.995,122.357Z" style="fill-rule: evenodd; stroke: none; fill: rgb(224, 224, 208); fill-opacity: 1;"/></g></g><g id="shape-8214213c-ab63-8062-8002-0d3d5b00d23b"><g class="fills" id="fills-8214213c-ab63-8062-8002-0d3d5b00d23b"><path rx="0" ry="0" d="M178.453,107.063C189.086,107.063,197.706,115.681,197.706,126.316C197.706,136.948,189.086,145.569,178.453,145.569C167.819,145.569,159.199,136.948,159.199,126.316C159.199,115.681,167.819,107.063,178.453,107.063Z" style="fill-rule: evenodd; stroke: none; fill: rgb(160, 101, 121); fill-opacity: 1;"/></g></g><g id="shape-8214213c-ab63-8062-8002-0d3d5b00d23c"><g class="fills" id="fills-8214213c-ab63-8062-8002-0d3d5b00d23c"><path rx="0" ry="0" d="M176.265,103.972C186.899,103.972,195.519,112.592,195.519,123.224C195.519,133.857,186.899,142.479,176.265,142.479C165.633,142.479,157.013,133.857,157.013,123.224C157.013,112.592,165.633,103.972,176.265,103.972Z" style="fill-rule: evenodd; stroke: none; fill: rgb(183, 3, 68); fill-opacity: 1;"/></g></g><g id="shape-8214213c-ab63-8062-8002-0d3d5b00d23d"><g class="fills" id="fills-8214213c-ab63-8062-8002-0d3d5b00d23d"><path rx="0" ry="0" d="M176.265,111.123C182.950,111.123,188.367,116.541,188.367,123.224C188.367,129.908,182.950,135.327,176.265,135.327C169.581,135.327,164.165,129.908,164.165,123.224C164.165,116.541,169.581,111.123,176.265,111.123Z" style="fill-rule: evenodd; stroke: none; fill: rgb(175, 175, 162); fill-opacity: 1;"/></g></g><g id="shape-8214213c-ab63-8062-8002-0d3d5b010abb"><g class="fills" id="fills-8214213c-ab63-8062-8002-0d3d5b010abb"><path rx="0" ry="0" d="M176.265,114.077C179.485,114.077,182.094,115.931,182.094,118.216C182.094,120.504,179.485,122.359,176.265,122.359C173.046,122.359,170.437,120.504,170.437,118.216C170.437,115.931,173.046,114.077,176.265,114.077Z" style="fill-rule: evenodd; stroke: none; fill: rgb(224, 224, 208); fill-opacity: 1;"/></g></g><g id="shape-8214213c-ab63-8062-8002-0d3d5b010abc"><g class="fills" id="fills-8214213c-ab63-8062-8002-0d3d5b010abc"><path rx="0" ry="0" d="M128.723,145.569C139.329,145.569,147.978,136.920,147.978,126.316C147.978,115.712,139.329,107.063,128.723,107.063C118.119,107.063,109.470,115.712,109.470,126.316C109.470,136.920,118.119,145.569,128.723,145.569Z" style="fill-rule: evenodd; stroke: none; fill: rgb(160, 101, 121); fill-opacity: 1;"/></g></g><g id="shape-8214213c-ab63-8062-8002-0d3d5b015f35"><g class="fills" id="fills-8214213c-ab63-8062-8002-0d3d5b015f35"><path rx="0" ry="0" d="M126.500,143.000C137.241,143.000,146.000,134.239,146.000,123.499C146.000,112.759,137.241,104.000,126.500,104.000C115.760,104.000,107.000,112.759,107.000,123.499C107.000,134.239,115.760,143.000,126.500,143.000Z" style="fill-rule: evenodd; stroke: none; fill: rgb(183, 3, 68); fill-opacity: 1;"/></g></g><g id="shape-8214213c-ab63-8062-8002-0d3d5b015f36"><g class="fills" id="fills-8214213c-ab63-8062-8002-0d3d5b015f36"><path rx="0" ry="0" d="M126.537,135.327C133.202,135.327,138.638,129.889,138.638,123.224C138.638,116.559,133.202,111.123,126.537,111.123C119.873,111.123,114.435,116.559,114.435,123.224C114.435,129.889,119.873,135.327,126.537,135.327Z" style="fill-rule: evenodd; stroke: none; fill: rgb(175, 175, 162); fill-opacity: 1;"/></g></g><g id="shape-8214213c-ab63-8062-8002-0d3d5b015f37"><g class="fills" id="fills-8214213c-ab63-8062-8002-0d3d5b015f37"><path rx="0" ry="0" d="M126.537,122.357C129.747,122.357,132.366,120.497,132.366,118.216C132.366,115.937,129.747,114.077,126.537,114.077C123.327,114.077,120.709,115.937,120.709,118.216C120.709,120.497,123.327,122.357,126.537,122.357Z" style="fill-rule: evenodd; stroke: none; fill: rgb(224, 224, 208); fill-opacity: 1;"/></g></g><g id="shape-8214213c-ab63-8062-8002-0d3d5b019c38"><g class="fills" id="fills-8214213c-ab63-8062-8002-0d3d5b019c38"><path rx="0" ry="0" d="M202.177,77.352L191.193,53.105C187.693,45.376,179.769,40.628,171.302,41.185L131.934,41.185C129.419,41.185,127.026,42.263,125.362,44.147C123.697,46.031,122.921,48.539,123.230,51.033L123.230,77.352L202.177,77.352Z" style="fill-rule: evenodd; stroke: none; fill: rgb(224, 224, 208); fill-opacity: 1;"/></g></g><g id="shape-8214213c-ab63-8062-8002-0d3d5b019c39"><g class="fills" id="fills-8214213c-ab63-8062-8002-0d3d5b019c39"><path rx="0" ry="0" d="M146.221,51.180L146.221,21.764C146.221,16.737,148.127,12.109,151.287,8.608C154.442,5.111,158.858,2.743,163.881,2.224L164.613,2.149L175.242,2.149L175.242,21.541L165.699,21.541L165.679,21.561C165.638,21.608,165.611,21.680,165.611,21.764L165.611,51.180L146.221,51.180Z" style="fill-rule: evenodd; stroke: none; fill: rgb(224, 224, 208); fill-opacity: 1;"/></g></g><g id="shape-8214213c-ab63-8062-8002-0d3d5b01d001"><g class="fills" id="fills-8214213c-ab63-8062-8002-0d3d5b01d001"><path rx="0" ry="0" d="M170.890,24.451L177.359,24.451L177.359,0.000L170.890,0.000L170.890,24.451Z" style="fill-rule: evenodd; stroke: none; fill: rgb(183, 3, 68); fill-opacity: 1;"/></g></g></g></svg>